<svg width="43" height="43" viewBox="0 0 43 43" fill="none" xmlns="http://www.w3.org/2000/svg">
<path d="M39.6258 31.875L35.1258 25.0008V24.8766L42.5016 21.2508L35.1258 17.625V17.5008L39.6258 10.6266L31.3758 11.1258L31.875 2.8758L25.0008 7.3758H24.8766L21.2508 0L17.625 7.3758H17.5008L10.6266 2.8758L11.1258 11.1258L2.8758 10.6266L7.3758 17.5008V17.625L0 21.2508L7.3758 24.8766V25.0008L2.8758 31.875L11.1258 31.3758L10.6266 39.6258L17.5008 35.1258H17.625L21.2508 42.5016L24.8766 35.1258H25.0008L31.875 39.6258L31.3758 31.3758L39.6258 31.875ZM21.2508 31.2516C15.75 31.2516 11.25 26.7516 11.25 21.2508C11.25 15.75 15.75 11.25 21.2508 11.25C26.7516 11.25 31.2516 15.75 31.2516 21.2508C31.2516 26.7516 26.7516 31.2516 21.2508 31.2516Z" fill="#5D5FEF"/>
<path d="M21.2508 13.7508C17.1258 13.7508 13.7508 17.1258 13.7508 21.2508C13.7508 25.3758 17.1258 28.7508 21.2508 28.7508C25.3758 28.7508 28.7508 25.3758 28.7508 21.2508C28.7508 17.1258 25.3758 13.7508 21.2508 13.7508Z" fill="#5D5FEF"/>
</svg>
